<?xml version="1.0" encoding="iso-8859-1"?>
<!-- Generator: Adobe Illustrator 16.0.0, SVG Export Plug-In . SVG Version: 6.00 Build 0)  -->
<!DOCTYPE svg PUBLIC "-//W3C//DTD SVG 1.1//EN" "http://www.w3.org/Graphics/SVG/1.1/DTD/svg11.dtd">
<svg version="1.1" id="Capa_1" xmlns="http://www.w3.org/2000/svg" xmlns:xlink="http://www.w3.org/1999/xlink" x="0px" y="0px"
	 width="791.998px" height="791.997px" viewBox="0 0 791.998 791.997" style="enable-background:new 0 0 791.998 791.997;"
	 xml:space="preserve">
<g>
	<path d="M566.301,84.53c0-24.692-4.515-46.668-4.515-46.668s-1.806-6.327-1.806-17.767c-14.755-9.635-29.207,1.503-29.207,1.503
		s-5.12-7.826-2.71-20.772c-13.249-3.614-29.81,5.823-29.81,5.823s-12.946,11.94-17.665,31.315
		c-31.314,31.315-82.705,110.805-82.705,110.805s-4.012,28.103,0.803,92.34c-15.255-15.261-10.438-48.98-10.438-48.98
		s-24.89,66.646-28.905,88.322c-4.015,21.677-65.843,147.743-65.843,147.743s0,61.824,12.848,130.877
		c-27.297-14.451-24.087-91.535-24.087-91.535s-17.665,67.447-10.44,74.676c7.228,7.221,16.057,69.852,24.09,77.885
		c1.096,3.42-27.402,112.713-58.714,152.459c-31.315,39.744,8.428,7.229,14.453,1.207c6.021-6.027,71.962-152.061,71.962-152.061
		s68.655-17.465,105.086-59.621c36.432-42.154,81.298-158.078,81.298-158.078s-36.056,9.975-51.489,12.344
		c15.356-6.922,59.621-41.552,59.621-41.552s9.333-46.974,31.013-113.82C570.819,194.134,566.301,109.219,566.301,84.53z
		 M383.12,499.65c-18.671,36.65-52.499,74.758-58.714,81.816c-0.271,0.383-0.516,0.705-0.7,0.889
		c-0.615,0.615-0.303,0.252,0.7-0.889c6.161-8.654,33.528-65.9,45.067-87.438c12.045-22.482,146.94-443.222,146.94-443.222
		C508.383,125.477,404.8,457.098,383.12,499.65z"/>
</g>
<g>
</g>
<g>
</g>
<g>
</g>
<g>
</g>
<g>
</g>
<g>
</g>
<g>
</g>
<g>
</g>
<g>
</g>
<g>
</g>
<g>
</g>
<g>
</g>
<g>
</g>
<g>
</g>
<g>
</g>
</svg>
